<svg version="1.1" id="Layer_1" xmlns="http://www.w3.org/2000/svg" xmlns:xlink="http://www.w3.org/1999/xlink" x="0px" y="0px"
	 width="100%" viewBox="0 0 608 608" enable-background="new 0 0 608 608" xml:space="preserve">
<path fill="#000000" opacity="1.000000" stroke="none" 
	d="
M284.536011,96.299942 
	C325.197632,84.683754 363.825195,106.096199 378.347809,140.133438 
	C382.552124,149.987183 384.942474,161.591278 383.699677,169.431564 
	C379.404327,169.431564 374.962219,169.422348 370.520203,169.435333 
	C368.193695,169.442123 365.877258,169.346283 363.594177,170.101730 
	C359.615204,171.418304 357.435547,174.208176 357.467957,178.259186 
	C357.498871,182.126999 359.680725,184.757111 363.499512,185.905579 
	C368.410797,187.382599 373.458740,186.777863 378.396484,186.545578 
	C383.181030,186.320511 384.770477,187.707458 384.517426,192.634949 
	C384.032318,202.081894 385.921722,201.253296 375.510284,201.311676 
	C372.177460,201.330368 368.832367,201.167389 365.514709,201.399628 
	C360.858093,201.725555 357.321350,205.602158 357.387146,209.955261 
	C357.448700,214.028839 360.921967,217.643616 365.497955,217.879471 
	C370.484894,218.136536 375.493073,218.060852 380.490570,218.004364 
	C383.464752,217.970764 384.704895,219.249161 384.558350,222.226395 
	C383.943390,234.717957 387.087799,233.037415 373.897247,233.164124 
	C371.564423,233.186539 369.228912,233.088531 366.898438,233.163986 
	C361.172394,233.349350 357.185730,237.034088 357.386414,241.873840 
	C357.577057,246.469330 361.473328,249.674805 367.153992,249.764526 
	C371.485596,249.832932 375.821503,249.827057 380.151764,249.712646 
	C383.219788,249.631577 384.657532,250.613083 384.631226,254.024811 
	C384.546844,264.954102 384.659027,264.969604 373.640442,264.890656 
	C371.310028,264.873962 368.979034,264.597015 366.651184,264.631714 
	C361.632233,264.706543 357.666290,268.236664 357.410004,272.714172 
	C357.138580,277.456818 360.859802,281.359558 366.255219,281.598053 
	C371.079193,281.811371 375.919891,281.730255 380.751404,281.657959 
	C383.359009,281.618958 384.991119,282.455444 384.832092,285.328156 
	C384.640381,288.790527 384.384583,292.249390 384.112579,296.376709 
	C377.940643,296.376709 371.982819,296.267426 366.031281,296.413239 
	C361.702179,296.519257 358.827332,298.894562 357.681641,303.044403 
	C356.654083,306.766510 358.515045,309.476990 361.325775,311.657990 
	C363.166687,313.086395 365.397400,312.963837 367.555817,313.032684 
	C372.048157,313.176056 376.541534,313.287476 381.034332,313.416565 
	C383.729462,313.493988 384.698853,314.792145 384.671783,317.557831 
	C384.489014,336.219238 384.475098,354.882233 384.365509,373.544464 
	C384.160004,408.545502 360.829102,438.810364 327.083221,447.893982 
	C282.073639,460.009552 235.662689,429.371429 229.887695,383.377899 
	C227.766602,366.485046 229.216446,349.420532 228.930527,332.436157 
	C228.896881,330.436890 228.888214,328.435822 228.928864,326.436859 
	C229.233704,311.444092 226.326630,313.022034 243.149124,313.208649 
	C251.581406,313.302185 256.512665,310.424652 256.469452,304.733307 
	C256.427643,299.228119 251.954712,296.329224 243.485504,296.320801 
	C240.819077,296.318146 238.143051,296.459198 235.489212,296.276306 
	C233.333893,296.127777 230.188187,297.459167 229.430923,294.400940 
	C228.482361,290.570129 228.179947,286.458038 229.889832,282.671295 
	C230.507492,281.303436 232.256302,281.720947 233.545578,281.704865 
	C238.044571,281.648712 242.548813,281.786926 247.042923,281.625183 
	C252.556793,281.426697 256.309601,277.902435 256.391754,273.130310 
	C256.471405,268.503937 252.642944,265.101929 246.956299,264.942902 
	C242.459869,264.817169 237.957550,264.844421 233.458618,264.886902 
	C230.347473,264.916321 229.080444,263.514557 228.890549,260.370850 
	C228.262970,249.981354 228.399216,249.751129 238.810760,249.757355 
	C241.976822,249.759247 245.151840,249.864410 248.306885,249.667664 
	C252.935791,249.378998 256.625702,245.438766 256.488251,241.197754 
	C256.354919,237.083130 252.846115,233.484558 248.304413,233.267242 
	C243.481857,233.036484 238.639603,233.072784 233.810150,233.180771 
	C230.429993,233.256363 228.825134,231.833939 228.976486,228.449890 
	C228.998779,227.951202 228.971588,227.450241 228.964935,226.950348 
	C228.846420,218.063126 228.846313,218.059570 237.680313,218.034561 
	C240.846649,218.025604 244.015930,218.126114 247.178757,218.021622 
	C252.559738,217.843857 256.576080,214.181274 256.533875,209.634338 
	C256.490997,205.015427 252.571213,201.516129 247.023026,201.351685 
	C242.693619,201.223389 238.350876,201.151825 234.027130,201.345963 
	C230.404739,201.508636 229.020996,200.138809 228.917709,196.458115 
	C228.642700,186.656937 228.510300,186.662308 238.042709,186.663300 
	C241.042435,186.663605 244.046005,186.747299 247.041016,186.625443 
	C252.198898,186.415604 256.432465,182.540176 256.498657,178.117249 
	C256.561401,173.924774 252.631622,169.823776 247.612259,169.559265 
	C241.827209,169.254395 236.013763,169.488419 230.295425,169.488419 
	C227.360886,147.892303 243.991898,108.812378 284.536011,96.299942 
z"/>
<path fill="#000000" opacity="1.000000" stroke="none" 
	d="
M249.530212,438.473206 
	C285.878723,469.609100 337.202484,467.802460 368.896301,434.342651 
	C384.559143,417.807098 392.749725,398.114838 392.755981,375.193756 
	C392.758606,365.530792 392.755768,355.867859 392.748199,346.204895 
	C392.745483,342.729218 392.689392,339.490082 390.528076,336.239777 
	C387.976898,332.403046 390.200256,329.112640 394.918182,328.833862 
	C397.076660,328.706299 399.250061,328.751099 401.414032,328.812408 
	C406.799591,328.964996 408.942932,331.812988 406.657318,336.547058 
	C405.332977,339.290070 405.246674,341.935455 405.183441,344.744812 
	C404.827911,360.539185 406.325836,376.409180 403.599670,392.108307 
	C396.508759,432.942505 367.056488,463.037781 326.298798,471.241638 
	C318.698944,472.771362 316.433044,475.459625 316.356018,483.094910 
	C316.325745,486.093445 316.339478,489.092590 316.351288,492.091400 
	C316.380981,499.614868 318.183136,502.052307 325.266052,504.654755 
	C331.370850,506.897858 337.693146,506.680084 344.022919,506.644012 
	C349.687012,506.611755 355.357208,506.515045 361.014404,506.724701 
	C366.789032,506.938751 371.226746,510.997955 372.137054,516.435974 
	C372.604034,519.225586 371.861603,521.055725 368.654358,521.057678 
	C367.654907,521.058289 366.655426,521.085205 365.655975,521.085144 
	C326.337769,521.083313 287.019562,521.083008 247.701370,521.072937 
	C241.812393,521.071472 240.793350,519.642151 242.890305,514.257385 
	C244.870590,509.172180 248.761154,506.731354 254.105576,506.673462 
	C261.934998,506.588562 269.766724,506.583862 277.595917,506.676392 
	C280.637238,506.712311 283.579071,506.272675 286.471832,505.482758 
	C295.728241,502.955170 297.700562,500.314026 297.687866,490.691376 
	C297.683899,487.692535 297.729431,484.692657 297.666626,481.695068 
	C297.540314,475.665771 294.895142,472.452454 288.987488,471.346100 
	C268.215607,467.456055 250.320358,458.184662 235.794907,442.753052 
	C219.525284,425.468445 210.740784,404.949219 209.602783,381.182922 
	C209.060776,369.863251 208.902283,358.555084 209.478577,347.227112 
	C209.667801,343.507782 209.722260,339.874786 207.261902,336.303131 
	C204.749222,332.655457 207.217453,329.104858 211.776245,328.859802 
	C214.267654,328.725922 216.784500,328.687866 219.268616,328.880585 
	C223.474731,329.206909 225.588165,332.756714 223.239349,336.262390 
	C221.377380,339.041443 221.246796,341.804779 221.332031,344.781738 
	C221.727219,358.584412 220.380234,372.419464 222.180130,386.197205 
	C224.878113,406.849487 234.169708,424.051849 249.530212,438.473206 
z"/>
<path fill="#000000" opacity="1.000000" stroke="none" 
	d="
M146.291962,196.274750 
	C146.302383,275.217712 146.296158,353.694031 146.339340,432.170349 
	C146.342606,438.127960 144.766571,443.112579 138.910202,445.657349 
	C134.223541,447.693848 129.733704,447.052338 125.892570,443.586304 
	C122.560974,440.580048 121.688339,436.588135 121.699821,432.249878 
	C121.745239,415.088470 121.729591,397.926941 121.730202,380.765442 
	C121.732391,319.950439 121.746635,259.135437 121.707169,198.320465 
	C121.703651,192.910049 122.548775,187.888809 127.433968,184.735077 
	C135.833191,179.312759 145.335968,184.960556 146.291962,196.274750 
z"/>
<path fill="#000000" opacity="1.000000" stroke="none" 
	d="
M467.736664,336.999939 
	C467.728027,290.351868 467.735413,244.203796 467.685883,198.055786 
	C467.680695,193.210266 468.308197,188.607620 472.378326,185.468765 
	C476.007294,182.670105 480.123077,181.803284 484.599609,183.673416 
	C489.477386,185.711182 491.500153,189.692719 492.202728,194.559250 
	C492.438660,196.193542 492.292938,197.885391 492.292908,199.550934 
	C492.291870,276.353271 492.287964,353.155579 492.281677,429.957916 
	C492.281555,431.623718 492.363770,433.299866 492.213135,434.953491 
	C491.579285,441.910980 486.284332,446.924316 479.766602,446.825165 
	C473.484558,446.729614 468.440369,441.769867 467.780121,434.958221 
	C467.636017,433.471405 467.711914,431.961792 467.712219,430.462677 
	C467.718018,399.475098 467.727570,368.487549 467.736664,336.999939 
z"/>
<path fill="#000000" opacity="1.000000" stroke="none" 
	d="
M426.638153,326.999939 
	C426.645660,291.686951 426.626007,256.873962 426.681396,222.061050 
	C426.694580,213.793854 432.078979,208.914139 440.059967,209.651215 
	C445.238220,210.129440 449.119659,213.364883 450.242920,218.473602 
	C450.738953,220.729767 450.928101,223.095734 450.929688,225.412079 
	C450.969849,284.544098 450.972229,343.676117 450.950500,402.808136 
	C450.949646,405.129303 450.817749,407.477722 450.451904,409.766296 
	C449.409729,416.285248 444.152283,420.618927 437.946930,420.248566 
	C431.440277,419.860291 426.698853,414.874847 426.679688,407.952911 
	C426.605408,381.135437 426.642700,354.317627 426.638153,326.999939 
z"/>
<path fill="#000000" opacity="1.000000" stroke="none" 
	d="
M187.372208,298.000122 
	C187.366074,334.473938 187.366318,370.447784 187.348709,406.421600 
	C187.344559,414.905762 182.946442,420.060028 175.616898,420.263123 
	C168.800278,420.451935 163.954224,415.441620 163.194946,407.342438 
	C163.039948,405.689148 163.064850,404.015717 163.065186,402.351593 
	C163.076660,344.393768 163.089172,286.435944 163.131821,228.478134 
	C163.133774,225.820511 163.316360,223.152878 163.587021,220.507538 
	C164.296402,213.574722 169.149612,209.320602 175.952667,209.553680 
	C182.673019,209.783920 187.301453,214.489059 187.323639,221.555466 
	C187.403168,246.870148 187.365448,272.185181 187.372208,298.000122 
z"/>
<path fill="#000000" opacity="1.000000" stroke="none" 
	d="
M105.275726,298.000061 
	C105.270485,321.648163 105.318626,344.796478 105.233788,367.944305 
	C105.197655,377.804199 98.062576,383.734558 89.458694,381.314819 
	C83.992134,379.777374 80.749367,375.112122 80.715309,368.267426 
	C80.642387,353.612854 80.691788,338.957703 80.692863,324.302765 
	C80.694405,303.153046 80.600891,282.002716 80.740631,260.853912 
	C80.810753,250.240570 90.835808,244.288361 99.438408,249.538071 
	C103.918236,252.271896 105.221642,256.650452 105.245010,261.528900 
	C105.302444,273.519043 105.270981,285.509613 105.275726,298.000061 
z"/>
<path fill="#000000" opacity="1.000000" stroke="none" 
	d="
M508.752808,295.000000 
	C508.765778,283.351929 508.658936,272.201996 508.832489,261.056396 
	C508.958954,252.936020 513.661804,247.846817 520.698975,247.696075 
	C527.756592,247.544907 533.105957,252.772690 533.251221,260.352936 
	C533.423340,269.334869 533.320801,278.322266 533.320312,287.307281 
	C533.318848,314.096100 533.287720,340.884979 533.319519,367.673737 
	C533.326355,373.455566 531.586121,378.207855 525.991089,380.707550 
	C517.497192,384.502380 509.009247,378.505371 508.806488,368.378052 
	C508.596649,357.899658 508.757965,347.413849 508.756989,336.931274 
	C508.755676,323.120850 508.754425,309.310425 508.752808,295.000000 
z"/>
<path fill="#000000" opacity="1.000000" stroke="none" 
	d="
M65.133041,322.568085 
	C64.404053,334.160522 52.547344,338.454468 45.551968,332.927887 
	C42.483891,330.504028 40.774570,327.392609 40.718044,323.501678 
	C40.633408,317.675903 40.549938,311.843811 40.724625,306.022217 
	C40.908119,299.907104 45.261276,295.231232 51.122639,294.447388 
	C57.358402,293.613495 62.652630,297.043213 64.359245,303.234955 
	C66.071686,309.447845 64.821274,315.824280 65.133041,322.568085 
z"/>
<path fill="#000000" opacity="1.000000" stroke="none" 
	d="
M557.958252,294.797180 
	C568.421021,293.950836 573.270203,298.385223 573.329712,308.478851 
	C573.359131,313.465546 573.442749,318.456482 573.283752,323.438538 
	C573.081787,329.766541 568.645203,334.517181 562.549866,335.226837 
	C556.728760,335.904541 551.150940,332.425476 549.813110,326.391296 
	C548.113647,318.725983 548.223877,310.869232 549.743408,303.156158 
	C550.571289,298.953491 553.441956,296.192780 557.958252,294.797180 
z"/>
</svg>